<?xml version="1.0" encoding="UTF-8"?>
<svg version="1.1" viewBox="0 0 377.95 377.95" xml:space="preserve" xmlns="http://www.w3.org/2000/svg"><defs><clipPath id="clipPath835"><path d="M 0,283.465 H 283.465 V 0 H 0 Z"/></clipPath></defs><g transform="matrix(1.3333 0 0 -1.3333 0 377.95)"><path d="m0 0h283.46v283.46h-283.46z" fill="#80bd00"/><path d="m93.115 171.7h7.594v-59.819h-7.594z" fill="#fff"/><g clip-path="url(#clipPath835)"><g transform="translate(161.31 119.5)"><path d="m0 0c-12.311 0-22.29 9.983-22.29 22.289 0 12.309 9.979 22.29 22.29 22.29s22.286-9.981 22.286-22.29c0-12.306-9.975-22.289-22.286-22.289m0 52.198c-16.519 0-29.91-13.39-29.91-29.909 0-16.52 13.391-29.908 29.91-29.908s29.91 13.388 29.91 29.908c0 16.519-13.391 29.909-29.91 29.909" fill="#fff"/></g><g transform="translate(100.32 111.9)"><path d="m0 0h36.786l-7.559 7.594h-29.227z" fill="#fff"/></g><g transform="translate(256.78 143.81)"><path d="m0 0h-0.029v3e-3h-7.627v-2e-3h-1.606l-12.604 2e-3 5e-3 -2e-3h-14.958l7.56-7.594h21.016c-0.029-0.109-0.056-0.221-0.084-0.33-0.09-0.344-0.18-0.69-0.284-1.025-0.115-0.354-0.253-0.698-0.385-1.048-0.205-0.542-0.43-1.082-0.677-1.603-0.148-0.319-0.294-0.638-0.454-0.948-0.155-0.291-0.328-0.573-0.492-0.852-0.176-0.298-0.352-0.595-0.536-0.884-0.179-0.273-0.364-0.536-0.551-0.793-0.204-0.288-0.414-0.568-0.63-0.844-0.197-0.244-0.393-0.492-0.599-0.731-0.236-0.276-0.483-0.545-0.735-0.809-0.209-0.217-0.407-0.434-0.618-0.642-0.296-0.285-0.604-0.554-0.914-0.827-0.188-0.168-0.372-0.338-0.57-0.5-0.51-0.412-1.035-0.811-1.58-1.177-0.073-0.046-0.146-0.093-0.216-0.14-0.489-0.318-0.991-0.622-1.507-0.914-0.195-0.106-0.398-0.201-0.598-0.304-0.403-0.208-0.814-0.406-1.231-0.589-0.229-0.105-0.462-0.195-0.694-0.282-0.408-0.164-0.821-0.319-1.237-0.459-0.243-0.077-0.486-0.157-0.731-0.226-0.432-0.126-0.871-0.236-1.315-0.337-0.237-0.053-0.473-0.112-0.713-0.156-0.492-0.099-0.996-0.174-1.5-0.229-0.192-0.025-0.384-0.059-0.583-0.074-0.709-0.069-1.427-0.109-2.154-0.109-12.311 0-22.292 9.978-22.292 22.283 0 8.298 4.545 15.523 11.272 19.361 0.132 0.077 0.258 0.167 0.396 0.241 0.022 0.01 0.05 0.022 0.072 0.035 1.876 1.01 3.907 1.764 6.058 2.201 1.451 0.297 2.956 0.455 4.494 0.455 3e-3 0 9e-3 -6e-3 0.012-6e-3 0.858 0 1.7-0.059 2.533-0.152 0.268-0.031 0.532-0.08 0.803-0.121 0.562-0.086 1.122-0.189 1.674-0.316 0.294-0.068 0.59-0.145 0.884-0.223 0.524-0.143 1.043-0.31 1.556-0.493 0.267-0.096 0.537-0.18 0.8-0.288 0.686-0.273 1.355-0.577 2.005-0.915 0.214-0.111 0.419-0.238 0.629-0.359 0.523-0.295 1.035-0.598 1.532-0.933 0.28-0.189 0.548-0.394 0.816-0.598 0.37-0.27 0.731-0.552 1.085-0.847 0.27-0.229 0.54-0.462 0.8-0.706 1.164-1.073 2.224-2.256 3.133-3.555 0.036-0.05 0.068-0.106 0.103-0.159v0.059l5.412 5.412c-0.892 1.175-1.88 2.272-2.939 3.304l0.027 0.025c-0.15 0.143-0.313 0.27-0.467 0.412-0.226 0.211-0.462 0.413-0.696 0.618-0.516 0.452-1.041 0.892-1.586 1.307-0.31 0.242-0.625 0.468-0.947 0.692-0.431 0.306-0.87 0.601-1.318 0.883-0.431 0.269-0.873 0.533-1.314 0.781-0.285 0.158-0.565 0.319-0.856 0.468-0.635 0.329-1.287 0.636-1.946 0.917-0.235 0.103-0.475 0.196-0.715 0.292-0.668 0.264-1.341 0.515-2.035 0.731-0.132 0.044-0.262 0.087-0.391 0.124-0.766 0.23-1.549 0.422-2.336 0.593-0.185 0.04-0.37 0.08-0.558 0.117-0.817 0.159-1.649 0.285-2.493 0.375-0.167 0.019-0.338 0.031-0.505 0.044-0.891 0.083-1.79 0.136-2.702 0.136-2.934 0-5.762-0.443-8.438-1.228-0.153-0.042-0.308-0.074-0.458-0.117-1.576-0.49-3.085-1.138-4.539-1.869-0.272-0.137-0.557-0.254-0.821-0.397-0.136-0.074-0.259-0.161-0.391-0.232-9.105-5.131-15.263-14.872-15.263-26.069 0-16.514 13.387-29.908 29.91-29.908 16.519 0 29.91 13.394 29.91 29.908v6e-3c-4e-3 0.72-0.033 1.433-0.079 2.136" fill="#fff"/></g><g transform="translate(86.424 141.78)"><path d="m0 0v-6e-3c-3e-3 -0.716-0.033-1.426-0.079-2.133h-7.656l-22.653-3e-3 -7.05 7.182h29.222c-0.055 0.251-0.126 0.499-0.19 0.747-0.091 0.341-0.179 0.689-0.283 1.023-0.116 0.36-0.254 0.704-0.385 1.047-0.205 0.546-0.432 1.08-0.677 1.606-0.149 0.319-0.294 0.639-0.454 0.949-0.156 0.291-0.329 0.567-0.492 0.853-0.176 0.297-0.352 0.594-0.537 0.88-0.179 0.272-0.364 0.536-0.551 0.799-0.205 0.283-0.413 0.565-0.629 0.837-0.198 0.251-0.395 0.493-0.599 0.732-0.238 0.276-0.486 0.545-0.736 0.812-0.208 0.214-0.407 0.431-0.62 0.638-0.294 0.286-0.602 0.558-0.912 0.828-0.188 0.167-0.372 0.338-0.57 0.499-0.509 0.416-1.035 0.812-1.58 1.181-0.072 0.05-0.146 0.09-0.215 0.133-0.491 0.326-0.991 0.632-1.508 0.917-0.196 0.109-0.398 0.202-0.598 0.305-0.404 0.207-0.814 0.408-1.234 0.594-0.225 0.1-0.459 0.19-0.691 0.283-0.408 0.161-0.821 0.313-1.236 0.452-0.243 0.081-0.486 0.155-0.733 0.226-0.431 0.128-0.869 0.239-1.314 0.338-0.237 0.056-0.473 0.112-0.713 0.158-0.492 0.094-0.995 0.165-1.499 0.23-0.194 0.021-0.384 0.056-0.584 0.077-0.709 0.068-1.427 0.109-2.154 0.109-12.31 0-22.292-9.981-22.292-22.293 0-8.298 4.545-15.52 11.273-19.357 0.131-0.075 0.257-0.164 0.394-0.239 0.023-0.012 0.051-0.025 0.071-0.034 1.879-1.014 3.909-1.764 6.061-2.204 1.45-0.298 2.954-0.452 4.493-0.452h0.012c0.855 0 1.7 0.061 2.532 0.161 0.27 0.027 0.533 0.074 0.804 0.114 0.562 0.084 1.122 0.187 1.675 0.32 0.294 0.068 0.59 0.136 0.883 0.216 0.524 0.15 1.044 0.317 1.556 0.499 0.267 0.097 0.536 0.184 0.8 0.286 0.687 0.276 1.355 0.58 2.005 0.918 0.214 0.114 0.419 0.238 0.631 0.353 0.521 0.297 1.033 0.601 1.53 0.939 0.28 0.189 0.548 0.39 0.817 0.589 0.369 0.276 0.73 0.555 1.085 0.852 0.268 0.229 0.539 0.466 0.8 0.707 1.161 1.076 2.223 2.254 3.133 3.553 0.036 0.051 0.066 0.108 0.103 0.161v-0.057l5.412-5.412c-0.893-1.178-1.881-2.277-2.939-3.307l0.026-0.021c-0.149-0.147-0.313-0.27-0.466-0.413-0.226-0.213-0.463-0.412-0.697-0.619-0.517-0.453-1.04-0.893-1.586-1.312-0.31-0.238-0.624-0.462-0.947-0.684-0.431-0.311-0.87-0.602-1.318-0.884-0.43-0.273-0.872-0.536-1.314-0.784-0.284-0.159-0.565-0.314-0.856-0.468-0.635-0.326-1.286-0.636-1.946-0.918-0.234-0.103-0.475-0.192-0.714-0.291-0.669-0.264-1.342-0.509-2.035-0.732-0.132-0.041-0.263-0.086-0.392-0.126-0.766-0.23-1.549-0.419-2.335-0.589-0.185-0.041-0.371-0.081-0.559-0.116-0.817-0.161-1.65-0.285-2.493-0.378-0.167-0.015-0.337-0.028-0.505-0.046-0.894-0.08-1.79-0.13-2.702-0.13-2.934 0-5.761 0.44-8.438 1.224-0.152 0.046-0.307 0.075-0.458 0.12-1.575 0.494-3.085 1.132-4.54 1.867-0.271 0.136-0.555 0.251-0.819 0.4-0.136 0.067-0.259 0.161-0.391 0.235-9.105 5.124-15.264 14.867-15.264 26.059v3e-3c0 16.518 13.388 29.912 29.91 29.912 16.519 0 29.91-13.394 29.91-29.912z" fill="#fff"/></g></g></g></svg>
